<svg width="31" height="31" viewBox="0 0 31 31" fill="none" xmlns="http://www.w3.org/2000/svg">
<path d="M24.3572 20.7538H26.5714V26.2153H24.3572V20.7538ZM19.9286 15.2922H22.1429V26.2153H19.9286V15.2922ZM9.9643 26.2153C8.49668 26.2135 7.08967 25.6376 6.0519 24.6137C5.01414 23.5899 4.43035 22.2017 4.42859 20.7538H6.64287C6.64287 21.4019 6.83767 22.0354 7.20264 22.5743C7.5676 23.1132 8.08634 23.5332 8.69325 23.7812C9.30016 24.0292 9.96799 24.0941 10.6123 23.9677C11.2566 23.8413 11.8484 23.5292 12.3129 23.0709C12.7774 22.6126 13.0938 22.0287 13.2219 21.3931C13.3501 20.7574 13.2843 20.0985 13.0329 19.4997C12.7815 18.901 12.3558 18.3892 11.8096 18.0291C11.2634 17.669 10.6212 17.4768 9.9643 17.4768V15.2922C11.4325 15.2922 12.8405 15.8676 13.8786 16.8919C14.9168 17.9161 15.5 19.3053 15.5 20.7538C15.5 22.2022 14.9168 23.5914 13.8786 24.6156C12.8405 25.6399 11.4325 26.2153 9.9643 26.2153Z" fill="#FE912A"/>
<path d="M28.7857 0H2.21429C1.62702 0 1.06381 0.230163 0.648549 0.639857C0.23329 1.04955 0 1.60521 0 2.18461V28.3999C0 28.9793 0.23329 29.535 0.648549 29.9446C1.06381 30.3543 1.62702 30.5845 2.21429 30.5845H28.7857C29.3727 30.5836 29.9354 30.3532 30.3505 29.9437C30.7656 29.5342 30.9991 28.979 31 28.3999V2.18461C31 1.60521 30.7667 1.04955 30.3515 0.639857C29.9362 0.230163 29.373 0 28.7857 0ZM28.7857 9.83073H13.2857V2.18461H28.7857V9.83073ZM11.0714 2.18461V9.83073H2.21429V2.18461H11.0714ZM2.21429 28.3999V12.0153H28.7857L28.7879 28.3999H2.21429Z" fill="#FE912A"/>
</svg>
