<svg width="35" height="35" viewBox="0 0 35 35" fill="none" xmlns="http://www.w3.org/2000/svg">
<path d="M17.5 18.9584V2.91669L29.1667 8.75002L17.5 14.5834" stroke="#424242" stroke-width="2.91667" stroke-linecap="round" stroke-linejoin="round"/>
<path d="M29.9848 14.9071C30.7609 17.299 30.8335 19.8635 30.194 22.2954C29.5545 24.7274 28.2299 26.9244 26.3777 28.6252C24.5255 30.326 22.2237 31.4589 19.7462 31.8892C17.2687 32.3194 14.7197 32.0289 12.4025 31.0522C10.0853 30.0755 8.0975 28.4537 6.67552 26.3797C5.25355 24.3058 4.45728 21.867 4.38146 19.3535C4.30563 16.84 4.95345 14.3577 6.24782 12.2018C7.54219 10.0459 9.42864 8.30719 11.6827 7.19257" stroke="#424242" stroke-width="2.91667" stroke-linecap="round" stroke-linejoin="round"/>
<path d="M11.6695 14.579C10.9387 15.5517 10.463 16.6919 10.2856 17.8955C10.1082 19.0992 10.2349 20.3281 10.6539 21.4703C11.073 22.6125 11.7712 23.6316 12.685 24.4349C13.5987 25.2382 14.699 25.8001 15.8855 26.0694C17.0719 26.3387 18.3069 26.3068 19.4779 25.9767C20.6489 25.6466 21.7187 25.0287 22.5898 24.1793C23.4609 23.3299 24.1056 22.2761 24.4653 21.1138C24.8249 19.9515 24.8879 18.7177 24.6487 17.5248" stroke="#424242" stroke-width="2.91667" stroke-linecap="round" stroke-linejoin="round"/>
</svg>
